Coordinates
version=1
nRows=15
nColumns=23
inDegrees=yes

Units are S.I. units (second, meters, Newtons, ...)
If the header above contains a line with 'inDegrees', this indicates whether rotational values are in degrees (yes) or radians (no).

endheader
time	pelvis_tilt	pelvis_list	pelvis_rotation	pelvis_tx	pelvis_ty	pelvis_tz	hip_flexion_r	hip_adduction_r	hip_rotation_r	knee_angle_r	knee_angle_r_beta	ankle_angle_r	subtalar_angle_r	mtp_angle_r	hip_flexion_l	hip_adduction_l	hip_rotation_l	knee_angle_l	knee_angle_l_beta	ankle_angle_l	subtalar_angle_l	mtp_angle_l
     15.00000000	     -6.90448892	      4.61518394	     14.22732380	      2.09999416	      0.82787452	      0.97942461	     34.26447982	    -13.61926025	     -6.07715945	    123.87601933	      2.16204440	    -16.73570194	    -19.99625077	      0.00000000	     10.54857206	     10.29786260	      7.19076646	     46.60263082	      0.81336935	     28.54753675	     -5.32831309	      0.00000000
     15.00666667	     -6.94955788	      3.97177965	     13.12153773	      2.10080361	      0.83075427	      0.98020408	     37.40947148	    -12.53317565	     -4.96653276	    122.02533969	      2.12974395	    -15.18565861	    -18.21665744	      0.00000000	      7.53347279	      8.88286865	      6.64369864	     44.28434653	      0.77290765	     27.72126631	     -5.03797280	      0.00000000
     15.01333333	     -7.08125887	      3.17577124	     12.46521820	      2.10212075	      0.83403183	      0.98028477	     40.08163871	    -11.63552280	     -4.61501188	    119.62381447	      2.08782943	    -13.73536408	    -16.75811716	      0.00000000	      4.58406173	      7.44417299	      6.37516041	     41.80372496	      0.72961264	     26.33031901	     -4.39717779	      0.00000000
     15.02000000	     -6.76153224	      2.13951836	     11.99771801	      2.10423492	      0.83848462	      0.98007360	     41.70623851	    -10.53419349	     -4.91261592	    116.58345422	      2.03476513	    -12.33792177	    -15.46716364	      0.00000000	      1.09423906	      5.66794482	      6.12738991	     38.98012641	      0.68033155	     23.99443714	     -4.02339606	      0.00000000
     15.02666667	     -7.16770717	      1.31641540	     11.18853673	      2.10613059	      0.84197059	      0.98040741	     44.15596502	     -9.40521494	     -4.67049825	    113.45964047	      1.98024429	    -10.98620782	    -14.14224779	      0.00000000	     -1.57379063	      4.29047241	      5.19307525	     36.11242316	      0.63028069	     20.98787574	     -3.68948084	      0.00000000
     15.03333333	     -6.92574718	      0.26506214	     10.59721471	      2.10875761	      0.84679303	      0.98032436	     45.32430927	     -8.17583590	     -5.08192528	    109.73563121	      1.91524807	     -9.64907251	    -12.91355476	      0.00000000	     -4.99424111	      2.62848152	      4.37232873	     32.90371722	      0.57427820	     17.10062049	     -3.63505432	      0.00000000
     15.04000000	     -7.47041128	     -0.58265208	      9.72555262	      2.11110876	      0.85039948	      0.98075895	     47.35291564	     -6.92196808	     -5.00434493	    105.95532063	      1.84926921	     -8.41988746	    -11.76335992	      0.00000000	     -7.41019500	      1.35522423	      2.76410957	     29.95289639	      0.52277666	     12.90785256	     -3.20124170	      0.00000000
     15.04666667	     -7.02684188	     -1.83366432	      9.27568438	      2.11427899	      0.85580788	      0.98044480	     47.64253937	     -5.56196547	     -5.81840811	    101.46454927	      1.77089046	     -7.25213607	    -10.93336776	      0.00000000	    -10.90293096	     -0.42701591	      1.42120344	     26.69132930	      0.46585158	      8.18922875	     -3.05874099	      0.00000000
     15.05333333	     -7.29002386	     -2.80460607	      8.60090471	      2.11714349	      0.86001453	      0.98044925	     48.66739962	     -4.34532660	     -6.16214503	     96.93295611	      1.69179924	     -6.11877556	    -10.15662323	      0.00000000	    -13.44969352	     -1.71887714	     -0.56769753	     23.82852237	      0.41588617	      3.37037048	     -2.62985170	      0.00000000
     15.06000000	     -7.66439290	     -3.61551286	      7.82134025	      2.11995838	      0.86390155	      0.98068626	     49.63740327	     -3.07697759	     -6.25881272	     92.23070274	      1.60972943	     -4.95663686	     -9.57136886	      0.00000000	    -15.75602505	     -2.69826174	     -2.79266585	     21.21436165	      0.37026046	     -1.39954407	     -1.99108586	      0.00000000
     15.06666667	     -8.09292641	     -4.35447905	      7.12271091	      2.12282640	      0.86760237	      0.98075286	     50.39720640	     -1.95663881	     -6.38865992	     87.26680154	      1.52309301	     -3.78429773	     -9.16618934	      0.00000000	    -17.80250987	     -3.54528002	     -5.16305680	     18.98243735	      0.33130603	     -6.00645799	     -1.36106487	      0.00000000
     15.07333333	     -8.55921364	     -4.97992278	      6.46288166	      2.12567193	      0.87104521	      0.98080133	     50.97021643	     -0.93229344	     -6.45235490	     82.09057752	      1.43275086	     -2.54251134	     -8.92539464	      0.00000000	    -19.60526142	     -4.21716321	     -7.55608349	     17.17704956	      0.29979607	    -10.24299277	     -0.77943711	      0.00000000
     15.08000000	     -9.04478271	     -5.47271412	      5.84521448	      2.12845275	      0.87418035	      0.98086968	     51.35284826	     -0.00624401	     -6.41504223	     76.72423123	      1.33909045	     -1.25500011	     -8.82740365	      0.00000000	    -21.16434773	     -4.73128383	     -9.92377852	     15.86927735	      0.27697114	    -13.95448254	     -0.27918694	      0.00000000
     15.08666667	     -9.68959224	     -5.71152916	      5.19976888	      2.13100472	      0.87666270	      0.98110628	     51.76746889	      0.78723418	     -6.09141186	     71.27456239	      1.24397579	      0.13207760	     -8.75970800	      0.00000000	    -22.32265259	     -4.96999437	    -12.20063160	     15.13566926	      0.26416726	    -16.95940912	      0.14553353	      0.00000000
     15.09333333	     -9.96259016	     -6.09359467	      4.81090602	      2.13364582	      0.87940398	      0.98116038	     51.47867347	      1.53469304	     -6.08153261	     65.50581871	      1.14329222	      1.47168653	     -8.85706995	      0.00000000	    -23.65857826	     -5.46383356	    -14.13588583	     14.86797069	      0.25949504	    -19.24995098	      0.44039087	      0.00000000
